<svg data-v-423bf9ae="" xmlns="http://www.w3.org/2000/svg" viewBox="0 0 395.6658195370787 163" class="iconAbove"><!----><!----><!----><g data-v-423bf9ae="" id="9c183b10-bf57-41fd-8648-96e672febad7" fill="black" transform="matrix(5.221932652326248,0,0,5.221932652326248,-5.117494760211258,60.07571554133189)"><path d="M6.01 10.18L6.38 10.18L6.38 19.56L5.47 19.71L5.47 16.98L5.47 16.98Q5.18 17.22 4.69 17.30L4.69 17.30L4.69 17.30Q4.20 17.39 3.33 17.39L3.33 17.39L3.33 17.39Q2.30 17.39 1.81 17.10L1.81 17.10L1.81 17.10Q1.33 16.81 1.16 16.06L1.16 16.06L1.16 16.06Q0.98 15.30 0.98 13.68L0.98 13.68L0.98 13.68Q0.98 12.07 1.15 11.33L1.15 11.33L1.15 11.33Q1.32 10.60 1.80 10.33L1.80 10.33L1.80 10.33Q2.28 10.07 3.33 10.07L3.33 10.07L3.33 10.07Q4.42 10.07 4.96 10.21L4.96 10.21L4.96 10.21Q5.50 10.35 5.75 10.77L5.75 10.77L6.01 10.18ZM4.79 16.58L4.79 16.58Q5.21 16.58 5.34 16.51L5.34 16.51L5.34 16.51Q5.47 16.45 5.47 16.24L5.47 16.24L5.47 10.88L2.59 10.88L2.59 10.88Q2.21 10.88 2.06 10.93L2.06 10.93L2.06 10.93Q1.92 10.98 1.92 11.12L1.92 11.12L1.92 16.58L4.79 16.58ZM11.44 9.18L11.44 17.18L10.53 17.18L10.53 9.18L8.09 9.18L8.09 8.43L13.86 8.43L13.86 9.18L11.44 9.18ZM14.22 11.96L14.22 11.96Q14.22 10.93 14.83 10.45L14.83 10.45L14.83 10.45Q15.43 9.97 16.70 9.97L16.70 9.97L16.70 9.97Q17.77 9.97 18.79 10.28L18.79 10.28L18.63 10.98L18.63 10.98Q18.27 10.88 17.78 10.81L17.78 10.81L17.78 10.81Q17.29 10.74 16.90 10.74L16.90 10.74L16.90 10.74Q16.02 10.74 15.16 10.86L15.16 10.86L15.16 12.92L15.16 12.92Q16.98 13.19 17.79 13.43L17.79 13.43L17.79 13.43Q18.59 13.66 18.87 14.06L18.87 14.06L18.87 14.06Q19.14 14.46 19.14 15.27L19.14 15.27L19.14 15.27Q19.14 16.06 18.88 16.52L18.88 16.52L18.88 16.52Q18.62 16.98 18.03 17.19L18.03 17.19L18.03 17.19Q17.43 17.39 16.41 17.39L16.41 17.39L16.41 17.39Q15.39 17.39 14.06 17.01L14.06 17.01L14.24 16.20L14.24 16.20Q15.33 16.62 16.55 16.62L16.55 16.62L16.55 16.62Q17.07 16.62 17.40 16.58L17.40 16.58L17.40 16.58Q17.74 16.53 18.21 16.39L18.21 16.39L18.21 14.35L18.21 14.35Q16.24 14.04 15.47 13.82L15.47 13.82L15.47 13.82Q14.70 13.59 14.46 13.22L14.46 13.22L14.46 13.22Q14.22 12.84 14.22 11.96L14.22 11.96ZM26.24 17.02L26.24 17.02Q25.73 17.22 25.19 17.30L25.19 17.30L25.19 17.30Q24.65 17.39 23.93 17.39L23.93 17.39L23.93 17.39Q22.65 17.39 22.03 17.00L22.03 17.00L22.03 17.00Q21.41 16.62 21.18 15.67L21.18 15.67L21.18 15.67Q20.94 14.71 20.94 12.81L20.94 12.81L20.94 12.81Q20.94 10.88 21.18 9.93L21.18 9.93L21.18 9.93Q21.42 8.97 22.06 8.60L22.06 8.60L22.06 8.60Q22.71 8.22 24.02 8.22L24.02 8.22L24.02 8.22Q24.44 8.22 25.02 8.29L25.02 8.29L25.02 8.29Q25.59 8.36 25.98 8.48L25.98 8.48L25.86 9.27L25.86 9.27Q25.34 9.14 24.66 9.08L24.66 9.08L24.66 9.08Q23.98 9.02 23.53 9.02L23.53 9.02L23.53 9.02Q22.92 9.02 22.58 9.09L22.58 9.09L22.58 9.09Q22.25 9.17 22.08 9.40L22.08 9.40L22.08 9.40Q21.91 9.63 21.91 10.11L21.91 10.11L21.91 16.41L21.91 16.41Q22.62 16.65 23.77 16.65L23.77 16.65L23.77 16.65Q24.82 16.65 26.11 16.30L26.11 16.30L26.24 17.02ZM30.39 17.29L30.39 17.29Q29.15 17.29 28.57 17.02L28.57 17.02L28.57 17.02Q28 16.74 27.80 16.01L27.80 16.01L27.80 16.01Q27.59 15.27 27.59 13.68L27.59 13.68L27.59 13.68Q27.59 12.08 27.80 11.35L27.80 11.35L27.80 11.35Q28 10.61 28.57 10.34L28.57 10.34L28.57 10.34Q29.15 10.07 30.39 10.07L30.39 10.07L30.39 10.07Q31.65 10.07 32.23 10.33L32.23 10.33L32.23 10.33Q32.80 10.60 33.00 11.33L33.00 11.33L33.00 11.33Q33.19 12.07 33.19 13.68L33.19 13.68L33.19 13.68Q33.19 15.27 32.99 16.01L32.99 16.01L32.99 16.01Q32.79 16.74 32.21 17.02L32.21 17.02L32.21 17.02Q31.64 17.29 30.39 17.29L30.39 17.29ZM28.52 16.48L31.58 16.48L31.58 16.48Q32.02 16.48 32.16 16.41L32.16 16.41L32.16 16.41Q32.30 16.35 32.30 16.14L32.30 16.14L32.30 10.88L29.23 10.88L29.23 10.88Q28.80 10.88 28.66 10.94L28.66 10.94L28.66 10.94Q28.52 11.00 28.52 11.21L28.52 11.21L28.52 16.48ZM35.64 17.18L35.64 10.18L36.02 10.18L36.29 10.88L36.29 10.88Q36.79 10.46 37.39 10.26L37.39 10.26L37.39 10.26Q37.98 10.07 38.82 10.07L38.82 10.07L38.82 10.07Q40.77 10.07 40.77 11.10L40.77 11.10L40.77 17.18L39.86 17.18L39.86 10.81L37.97 10.81L37.97 10.81Q37.39 10.81 37.10 10.89L37.10 10.89L37.10 10.89Q36.81 10.98 36.68 11.17L36.68 11.17L36.68 11.17Q36.55 11.37 36.55 11.76L36.55 11.76L36.55 17.18L35.64 17.18ZM42.25 10.18L43.16 10.18L45.12 16.42L45.26 16.42L47.22 10.18L48.13 10.18L45.89 17.18L44.49 17.18L42.25 10.18ZM51.81 16.52L51.81 16.52Q52.37 16.52 52.91 16.45L52.91 16.45L52.91 16.45Q53.44 16.38 54.22 16.18L54.22 16.18L54.35 16.90L54.35 16.90Q53.90 17.08 53.14 17.19L53.14 17.19L53.14 17.19Q52.39 17.29 51.58 17.29L51.58 17.29L51.58 17.29Q50.54 17.29 50.05 17.00L50.05 17.00L50.05 17.00Q49.56 16.72 49.39 15.97L49.39 15.97L49.39 15.97Q49.21 15.23 49.21 13.68L49.21 13.68L49.21 13.68Q49.21 12.21 49.43 11.45L49.43 11.45L49.43 11.45Q49.66 10.70 50.23 10.38L50.23 10.38L50.23 10.38Q50.79 10.07 51.90 10.07L51.90 10.07L51.90 10.07Q52.98 10.07 53.53 10.23L53.53 10.23L53.53 10.23Q54.08 10.40 54.31 10.82L54.31 10.82L54.31 10.82Q54.53 11.24 54.53 12.07L54.53 12.07L54.53 12.07Q54.53 13.15 54.26 13.57L54.26 13.57L54.26 13.57Q54.00 14 53.15 14.13L53.15 14.13L53.15 14.13Q52.30 14.27 50.15 14.27L50.15 14.27L50.15 16.32L50.15 16.32Q50.79 16.52 51.81 16.52L51.81 16.52ZM51.37 10.91L51.37 10.91Q50.65 10.91 50.40 11.10L50.40 11.10L50.40 11.10Q50.15 11.28 50.15 11.82L50.15 11.82L50.15 13.52L52.46 13.52L52.46 13.52Q53.19 13.52 53.45 13.34L53.45 13.34L53.45 13.34Q53.70 13.16 53.70 12.63L53.70 12.63L53.70 10.91L51.37 10.91ZM57.51 10.18L57.90 11.35L57.90 11.35Q58.60 10.74 59.04 10.42L59.04 10.42L59.04 10.42Q59.47 10.11 59.78 9.97L59.78 9.97L59.91 10.86L59.91 10.86Q58.84 11.24 58.03 11.89L58.03 11.89L58.03 17.18L57.12 17.18L57.12 10.18L57.51 10.18ZM64.33 10.85L62.99 10.85L62.99 16.48L62.99 16.48Q63.87 16.53 64.04 16.53L64.04 16.53L63.97 17.16L63.97 17.16Q63.27 17.29 62.85 17.29L62.85 17.29L62.85 17.29Q62.08 17.29 62.08 16.41L62.08 16.41L62.08 10.85L61.00 10.85L61.00 10.18L62.08 10.18L62.08 8.55L62.99 8.32L62.99 10.18L64.33 10.18L64.33 10.85ZM68.66 16.52L68.66 16.52Q69.22 16.52 69.75 16.45L69.75 16.45L69.75 16.45Q70.28 16.38 71.06 16.18L71.06 16.18L71.19 16.90L71.19 16.90Q70.74 17.08 69.99 17.19L69.99 17.19L69.99 17.19Q69.23 17.29 68.42 17.29L68.42 17.29L68.42 17.29Q67.38 17.29 66.89 17.00L66.89 17.00L66.89 17.00Q66.40 16.72 66.23 15.97L66.23 15.97L66.23 15.97Q66.05 15.23 66.05 13.68L66.05 13.68L66.05 13.68Q66.05 12.21 66.28 11.45L66.28 11.45L66.28 11.45Q66.50 10.70 67.07 10.38L67.07 10.38L67.07 10.38Q67.63 10.07 68.74 10.07L68.74 10.07L68.74 10.07Q69.82 10.07 70.37 10.23L70.37 10.23L70.37 10.23Q70.92 10.40 71.15 10.82L71.15 10.82L71.15 10.82Q71.37 11.24 71.37 12.07L71.37 12.07L71.37 12.07Q71.37 13.15 71.11 13.57L71.11 13.57L71.11 13.57Q70.84 14 69.99 14.13L69.99 14.13L69.99 14.13Q69.15 14.27 66.99 14.27L66.99 14.27L66.99 16.32L66.99 16.32Q67.63 16.52 68.66 16.52L68.66 16.52ZM68.21 10.91L68.21 10.91Q67.49 10.91 67.24 11.10L67.24 11.10L67.24 11.10Q66.99 11.28 66.99 11.82L66.99 11.82L66.99 13.52L69.30 13.52L69.30 13.52Q70.03 13.52 70.29 13.34L70.29 13.34L70.29 13.34Q70.55 13.16 70.55 12.63L70.55 12.63L70.55 10.91L68.21 10.91ZM74.35 10.18L74.75 11.35L74.75 11.35Q75.45 10.74 75.88 10.42L75.88 10.42L75.88 10.42Q76.31 10.11 76.62 9.97L76.62 9.97L76.75 10.86L76.75 10.86Q75.68 11.24 74.87 11.89L74.87 11.89L74.87 17.18L73.96 17.18L73.96 10.18L74.35 10.18Z"></path></g><!----><g data-v-423bf9ae="" id="12682637-7918-4345-933a-9a562d76c13d" transform="matrix(1,0,0,1,147.99847412109375,-5)" stroke="none" fill="black"><switch><g><path d="M54 40v-8.7h-8V40c0 .4-.1.8-.2 1.1l-4.5 10.7c2.2.3 5.7 1.2 9.3 4.2 4 3.3 8.8 1 10.2.2l-6.4-15.1c-.3-.3-.4-.7-.4-1.1z"></path><path d="M50 5C24.9 5.2 4.8 25.5 5 50.3 5.2 74.9 25.3 95 50 95h.3c12-.1 23.3-4.8 31.7-13.4 8.4-8.6 13.1-19.9 13-31.9C94.8 25.1 74.7 5 50 5zm20.6 66.8c-1.1 1.7-3 2.7-5.1 2.7H34.4c-2.1 0-4-1-5.1-2.7-1.1-1.8-1.3-3.9-.5-5.8l11.3-26.6v-8.1h-1.3c-1.6 0-2.9-1.3-2.9-2.9 0-1.6 1.3-2.9 2.9-2.9H61c1.6 0 2.9 1.3 2.9 2.9 0 1.6-1.3 2.9-2.9 2.9h-1.3v8.1L71.2 66c.8 1.9.6 4-.6 5.8z"></path></g></switch></g><!----></svg>