<svg data-v-fde0c5aa="" xmlns="http://www.w3.org/2000/svg" viewBox="0 0 300 300" class="icon"><!----><defs data-v-fde0c5aa=""><!----></defs><rect data-v-fde0c5aa="" fill="#366CD9" x="0" y="0" width="300px" height="300px" class="logo-background-square"></rect><!----><defs data-v-fde0c5aa=""><!----></defs><g data-v-fde0c5aa="" id="0c9436f8-6e8f-4a6a-a38b-7b4c2f3c3afb" fill="#000000" stroke="none" transform="matrix(2.4443615600056963,0,0,2.4443615600056963,27.781828754721587,27.781921999715188)"><switch><g><path d="M54 40v-8.7h-8V40c0 .4-.1.8-.2 1.1l-4.5 10.7c2.2.3 5.7 1.2 9.3 4.2 4 3.3 8.8 1 10.2.2l-6.4-15.1c-.3-.3-.4-.7-.4-1.1z"></path><path d="M50 5C24.9 5.2 4.8 25.5 5 50.3 5.2 74.9 25.3 95 50 95h.3c12-.1 23.3-4.8 31.7-13.4 8.4-8.6 13.1-19.9 13-31.9C94.8 25.1 74.7 5 50 5zm20.6 66.8c-1.1 1.7-3 2.7-5.1 2.7H34.4c-2.1 0-4-1-5.1-2.7-1.1-1.8-1.3-3.9-.5-5.8l11.3-26.6v-8.1h-1.3c-1.6 0-2.9-1.3-2.9-2.9 0-1.6 1.3-2.9 2.9-2.9H61c1.6 0 2.9 1.3 2.9 2.9 0 1.6-1.3 2.9-2.9 2.9h-1.3v8.1L71.2 66c.8 1.9.6 4-.6 5.8z"></path></g></switch></g><!----></svg>